<svg xmlns="http://www.w3.org/2000/svg" version="1.1" width="600px" height="600px" viewBox="0 0 200 200" style="overflow:hidden!important;"><g id="svga-group-wrapper"><g id="svga-group-backs-single"></g><g id="svga-group-humanwrap-move" transform="matrix(1,0,0,1,0,0)"><g id="svga-group-humanwrap"><g id="svga-group-hair-back-move" transform="matrix(1,0,0,1,0,0)"><g id="svga-group-hair-back"></g></g><g id="svga-group-humanbody-back"><path id="SvgjsPath13594" d="M166.5 181.1c-10.9-6.6-27.6-8.4-35-12.1-4.9-2.5-9.1-4.7-8.9-17.8s1.9-42.4 1.9-42.4H75.4s1.6 29.4 1.9 42.4-4.2 15.6-8.9 17.8c-7.4 3.5-24.1 5.4-35 12.1-10.8 6.6-10 18.9-10 18.9v19.7h153.3V200c-.1 0 .7-12.3-10.2-18.9z" fill="#f0c7b1" stroke-width="none" opacity="1"></path></g><g id="svga-group-chinshadow-single"><path id="SvgjsPath13590" d="M124.5 108.9H75.4c.1 1.8 1.6 29.7 1.9 42.3 0 1.4 0 2.7-.1 3.9 1.7 2.2 3.4 4.2 5.1 5.9 5.5 6.1 8.4 6.5 17.7 6.5s12.2-.4 17.7-6.5c1.6-1.7 3.3-3.7 5-5.9-.1-1.2-.1-2.5-.1-3.9.2-12.7 1.8-40.5 1.9-42.3z" fill="#d19271" stroke-width="none" opacity="0.65"></path></g><g id="svga-group-humanbody-front"><path id="SvgjsPath13595" d="M78.7 156.8c.5 4.8 1.7 9.4 3.1 13.9.8 2.3 1.6 4.6 2.6 6.9.8 2 1.7 4.2 3.1 5.9.3.4 1 0 .9-.5-.5-2.2-1.6-4.3-2.4-6.4-.9-2.2-1.7-4.4-2.5-6.6-1.5-4.4-2.8-8.9-4.1-13.3-.2-.4-.8-.3-.7.1zm41.3-1c-1.3 8.2-3.9 16.1-5.4 24.2-.1.4.4.5.6.2 3.1-7.7 4.1-16.1 5.1-24.3-.1-.2-.3-.2-.3-.1zm-25.8 11.9c-.9 3.6 1.9 8.6 6.2 7.6.5-.1.4-.8 0-1-1.4-.5-2.9-.9-3.9-2.1-1.1-1.2-1.5-2.9-1.4-4.5 0-.4-.8-.5-.9 0z" fill="#d19271" stroke-width="none" opacity="1"></path><path id="SvgjsPath13596" d="M177.3 219.7c-.1-6.6-.3-13.1-.3-19.7l-.3-.3c.1 0 .1 0 .2.1s.1.2.1.1v-1.4c0-.5-.1-.9-.1-1.4-.1-.9-.3-1.9-.5-2.8-.5-1.8-1.1-3.6-2-5.3-1.7-3.4-4.4-6.2-7.7-8.1-3.6-2.2-7.6-3.8-11.6-5.1-4-1.3-8.1-2.4-12.1-3.5-4-1.2-8.1-2.2-11.8-4.2-1.9-1-3.6-2.1-4.8-3.6-1.2-1.6-1.9-3.5-2.3-5.5-.8-4-.4-8.2-.3-12.4l.7-12.6 1.5-25.2.1-1.4h-1.4c-8.2 0-16.4 0-24.6.1l-24.6.3h-.9l.1.9c.8 11.9 1.6 23.8 2.1 35.7.1 3 .3 6 .2 8.9-.1 2.9-.4 5.9-1.6 8.6-.6 1.3-1.4 2.5-2.4 3.5s-2.3 1.8-3.6 2.4c-2.6 1.3-5.4 2.2-8.3 3-5.8 1.5-11.6 2.8-17.3 4.7-2.8.9-5.7 2-8.4 3.4-1.3.7-2.7 1.4-4 2.4-1.3.9-2.4 1.9-3.5 3.1-2.1 2.3-3.6 5.2-4.5 8.1-.5 1.5-.8 3-1 4.6-.1.8-.1 1.6-.1 2.4v2.3l-.2 17.9v1.3h1.4l38.3.2c12.8.1 25.5.1 38.3 0 12.8-.1 25.6-.1 38.3-.3 12.8-.2 25.6-.5 38.3-.7h.6v-.5zm-77.2-1.6H61.8l-37 .2-.1-16.6v-2.2c0-.7 0-1.4.1-2.1.1-1.4.4-2.8.8-4.2.8-2.7 2.1-5.3 3.9-7.5.9-1.1 2-2.1 3.1-2.9 1.1-.9 2.4-1.6 3.7-2.3 2.6-1.4 5.3-2.5 8.1-3.5 5.6-2 11.4-3.4 17.1-5.1 2.9-.8 5.8-1.7 8.5-3.1 1.3-.7 2.7-1.5 3.8-2.6 1.1-1.1 2-2.4 2.6-3.9 1.2-2.9 1.5-5.9 1.6-8.9 0-3-.1-6-.2-9l-1.3-34.8 23.5.4c7.7.1 15.4.1 23.1.1-.4 7.9-.8 15.9-1.1 23.8-.2 4.2-.2 8.4-.3 12.6 0 4.2-.2 8.5.8 12.8.5 2.1 1.3 4.2 2.8 6 1.4 1.7 3.4 2.9 5.3 3.8 3.9 1.9 8 2.8 12.1 3.8s8.2 2 12.2 3.3c4 1.3 7.9 2.8 11.5 5 3.2 1.9 5.8 4.7 7.5 8 .9 1.6 1.5 3.4 1.9 5.2.2.9.4 1.8.4 2.7.1.5.1.9.1 1.4V200l-.3 19c-12.6-.2-25.1-.5-37.7-.7-12.7-.1-25.5-.1-38.2-.2z" fill="#c27b55" stroke-width="none" opacity="1"></path></g><g id="svga-group-clothes-single"><path id="SvgjsPath13471" d="M179.3 220.1c0-17.5-1.6-26.7-1.6-26.7-3.2-15.2-21.5-18.1-30.1-20.5-2.8-.8-7.9-2.4-7.9-2.4-4.8 5.3-10.2 17.8-16.2 23.3-7.5 7-14.9 13-21.8 18.1-6.4-4-13.8-9.3-21.4-16.1-7.7-6.9-13.9-20.7-18.6-26.7-3.1.5-6.3 1.8-10 2.6-8.7 1.9-26.5 7.6-29.5 21.6 0 0-1.6 9.2-1.6 26.7h158.7z" fill="#ededed" stroke-width="none" opacity="1"></path><path id="SvgjsPath13472" d="m72.9 159.9.7-8.2-14.3 9-9.1 6.8 2.1 1-27.1 9.9-3.3.8-5 19.8v20.9h59.9L72 175.8l.9-15.9zm105.2 19.5-3.3-.8-27.1-9.9 2.1-1-9.1-6.8-13.8-9.3.2 8.5.8 16.1-4.8 44.1H183v-20.9l-4.9-20z" fill="#386e77" stroke-width="none" opacity="1"></path><path id="SvgjsPath13473" d="M148.5 181.7c-2-1.7-4-3.5-6-5.2l-5.9-5.3c-2-1.7-4-3.5-6-5.3 1.7 2 3.6 3.9 5.4 5.9 1.8 1.9 3.7 3.8 5.6 5.7 1.9 1.9 3.8 3.7 5.8 5.5 1.6 1.5 3.3 3 5.1 4.4-2.3 1.6-4.6 3.3-6.8 5-2.6 2-5.1 4-7.6 6.2-1.2 1.1-2.4 2.2-3.5 3.6-.3.3-.5.9-.6 1.3l-.4 1.1-.8 2.3c-1.1 3.1-2.1 6.1-3.1 9.2 1.4-2.9 2.8-5.9 4.1-8.8l1-2.2.5-1.1c.2-.4.3-.6.5-.9.9-1.1 2.2-2.2 3.4-3.2 2.5-2.1 5.1-3.9 7.6-5.9l7.8-5.7.2-.2c.3-.4.2-1.1-.2-1.4-2-1.6-4.1-3.3-6.1-5zm11.6-6.8c-3.6-1.2-7.3-2.3-11-3.2 3.5 1.6 7.1 2.9 10.7 4.1 3.6 1.2 7.3 2.3 11 3.2-3.5-1.6-7-2.9-10.7-4.1zm12.6 7.8c-1 .7-2.1 1.4-2.7 2.8-1.1 2.3-1.7 4.6-2.4 6.9-.6 2.3-1.1 4.7-1.5 7.1-.4 2.4-.7 4.8-.6 7.2.7-2.3 1.5-4.6 2.1-6.9.7-2.3 1.3-4.6 1.9-6.9l.9-3.5c.3-1.1.6-2.3 1-3.4.2-1 1.1-1.8 1.9-2.6.8-.8 1.8-1.5 2.8-2.2-1.2.3-2.3.8-3.4 1.5zm-36.1-22 4.6 3.1c1.4 1 2.8 1.9 4 3.1-.6.4-1.3.7-1.9 1.1-.8.4-1.5.9-2.2 1.3.8-.3 1.6-.7 2.4-1 .8-.3 1.6-.7 2.4-1.1h.1c.1-.1.1-.3 0-.4-1.2-1.5-2.7-2.6-4.2-3.7s-3-2.1-4.6-3.2c-3.1-2.1-6.2-4-9.1-6.3 1.2 1.4 2.6 2.6 4.1 3.8 1.4 1.2 2.9 2.2 4.4 3.3zM72 190.8l-.9-6.3-.9-6.3c-.1-.9 0-2 .1-3.1l.3-3.2c.2-2.1.4-4.2.5-6.4-.6 2.1-1 4.2-1.4 6.2l-.6 3.2c-.2 1.1-.4 2.1-.3 3.3.3 4.4.8 8.5 1.3 12.8.6 4.2 1.2 8.4 1.9 12.6.7 4.2 1.5 8.4 2.5 12.6-.2-4.3-.5-8.5-.9-12.8-.5-4.2-1.1-8.4-1.6-12.6z" fill="#4d7e86" stroke-width="none" opacity="1"></path><path id="SvgjsPath13474" d="M183.4 199.2c0-.1 0-.1 0 0-.8-3.4-1.5-6.7-2.3-10.1l-2.3-10c-.1-.3-.3-.5-.5-.5l-3.2-.9c-4.5-1.7-9-3.4-13.5-5-3.9-1.4-7.9-2.9-11.9-4.2l.4-.2c.4-.2.5-.6.3-1-.1-.1-.1-.2-.2-.3l-5.7-4.1c-1.9-1.4-3.8-2.8-5.8-4-2-1.3-4.1-2.5-6.1-3.8l-5.8-3.7c-1.1-.4-3.3-1-3.3-1s-.3 2.1-.2 4.6c.2 2.6.5 5.7 1.8 8.1.9 1.6 1.4 2.1 1.7 2.2l.3 10.7-1.7 13.7c-.9 1.1-1.8 2.2-2.8 3.2-6.7 6.3-13.7 12.4-21.1 18-4-2.5-7.9-5.1-11.7-7.9-2-1.5-3.9-3-5.8-4.6s-3.8-3.1-5.5-4.9c-1.6-1.7-3-3.5-4.3-5.4L72.8 176l.3-10.7c.2-.2.9-.8 1.6-1.9.9-1.5 2.4-4.5 2.6-6.9.2-2.3.3-5.4.3-6.2 0 0-3.4.5-4.5 1l-5.8 3.7c-2 1.2-4 2.5-6.1 3.8s-3.9 2.7-5.8 4l-5.7 4.1c-.1.1-.2.2-.2.3-.2.4 0 .8.3 1l.4.2c-4 1.4-7.9 2.8-11.9 4.2-4.5 1.6-9 3.3-13.5 5l-3.2.9c-.2.1-.5.3-.5.5l-2.3 10c-.8 3.3-1.5 6.6-2.3 10v.1c0 3.5.1 7 .1 10.5l-.1 10.5c0 .2.2 2.1.4 2.1l166.1-.6c.2 0 .4-1.3.4-1.5l-.1-10.5c.1-3.4.1-6.9.1-10.4zM17.3 219.7l-.1-10.1c0-3.5 0-6.9.1-10.4.9-3.3 1.8-6.6 2.6-9.8l2.5-9.4 2.3-.5c1.4.9 2.8 1.9 4.1 2.9.4.3.7.6 1 .9.2.2.2.3.3.4l.3.6c.3.8.7 1.7 1 2.6.6 1.8 1.1 3.6 1.6 5.4l1.5 5.4.7 2.7c.2.9.4 1.8.5 2.7.3 1.8.6 3.7.9 5.6.5 3.6 1.1 7.2 1.8 10.8l-21.1.2zm29.6-.4-8.2.1c0-3.6-.1-7.3-.3-10.9-.1-1.9-.3-3.8-.5-5.7-.1-.9-.3-2-.5-2.9l-.7-2.8c-1-3.7-2.2-7.3-3.6-10.8-.4-.9-.8-1.8-1.3-2.6l-.4-.6c-.2-.2-.4-.5-.6-.6-.4-.3-.8-.6-1.2-.8-1.4-.8-2.9-1.5-4.4-2.1l.4-.1h.1c4.5-1.6 9.1-3.2 13.6-4.9s9-3.3 13.5-5.1c.2-.1.3-.2.4-.3.8.3 1.6.5 2.4.8 1.5.5 2.9.9 4.4 1.4-1.5 1.3-3 2.6-4.6 3.9l-7 6.1c-1.2 1-2.3 2.1-3.5 3L41 187l-.2.2c-.3.4-.2 1.1.2 1.4l17.7 13.3c.7.6 1.5 1.1 2.2 1.7l.3.2.1.1.2.2.2.3.7 1.2 2.8 4.8c1.7 2.9 3.4 5.8 5.1 8.6-7.9.1-15.6.2-23.4.3zm23.4-.2c-1.4-3.1-2.9-6.1-4.3-9.1l-2.5-5-.6-1.2-.2-.3c0-.1-.1-.2-.2-.4-.1-.1-.2-.3-.3-.4l-.3-.2-2.1-1.8c-2.9-2.4-5.8-4.6-8.7-6.9-2.6-2-5.2-4-7.8-5.9l2.7-2c1.3-1 2.3-2.1 3.5-3.1 2.3-2.1 4.5-4.2 6.8-6.4 2.2-2.1 4.5-4.3 6.7-6.5s4.4-4.4 6.5-6.6c-2.4 1.9-4.8 4-7.1 6-.8.7-1.6 1.4-2.3 2-.6-.4-1.2-.7-1.8-1-.8-.4-1.6-.8-2.4-1.1-1-.4-2.1-.8-3.1-1.1l-.9-.4 4.5-3.5c1.8-1.4 3.7-2.9 5.5-4.1 1.8-1.3 3.7-2.7 5.6-4l5.8-4.1c-.1 2.1-.3 4.1-.4 6.1-.1 1.9-.3 4-.4 6.1L71.4 176v.1l2.1 22.1c.7 7 1.4 13.9 2.2 20.9h-5.4zm29.1-.3c-7.2-.1-14.4-.1-21.7-.1-.7-6.9-1.5-13.8-2.3-20.6l-1-7.9c1 1.4 2.2 2.8 3.3 4.1 1.7 1.9 3.6 3.5 5.5 5.1s3.8 3.2 5.8 4.7c3.9 3.1 8 6 12.1 8.7.3.2.7.2 1 0 7.7-5.6 15.2-11.5 22.2-17.9.2-.1.3-.3.5-.5l-.4 3.7c-.8 7-1.6 14.1-2.3 21.1l-22.7-.4zm24.9.2c.8-6.9 1.5-13.9 2.2-20.9l2.1-22.1v-.1l-.9-12.3c-.2-2.1-.3-4.1-.4-6.1s-.3-4-.4-6.1l5.8 4.1c1.9 1.4 3.7 2.7 5.6 4 1.9 1.2 3.7 2.7 5.5 4.1l4.6 3.5-.9.4c-1 .4-2.1.7-3.1 1.1-.8.3-1.6.7-2.4 1.1-.6.3-1.2.6-1.8 1-.8-.7-1.6-1.4-2.3-2-2.4-2-4.7-4-7.1-6 2.1 2.2 4.4 4.4 6.5 6.6 2.2 2.2 4.4 4.4 6.7 6.5 2.2 2.1 4.5 4.3 6.8 6.4 1.2 1.1 2.2 2.1 3.5 3.1l2.7 2c-2.6 1.9-5.2 3.9-7.8 5.9-2.9 2.3-5.8 4.5-8.7 6.9l-2.1 1.8-.3.2c-.1.1-.2.3-.4.4-.1.2-.2.3-.2.4l-.2.3-.6 1.2-2.4 5c-1.4 3-2.9 6.1-4.3 9.1-2.1.6-3.9.6-5.7.5zm28.8.3c-7.8-.1-15.5-.1-23.2-.2 1.7-2.9 3.4-5.7 5.1-8.6l2.8-4.8.7-1.2.2-.3c.1-.1.1-.2.2-.2s.1 0 .1-.1l.3-.2c.7-.6 1.4-1.1 2.1-1.7l17.7-13.3c.4-.3.5-.9.2-1.4l-.2-.2-3.7-2.8c-1.1-.9-2.3-2-3.5-3l-7-6.1c-1.5-1.3-3-2.6-4.6-3.9 1.5-.5 2.9-.9 4.4-1.4.8-.2 1.6-.5 2.4-.8.1.1.2.3.4.3l13.5 5.1c4.5 1.7 9 3.3 13.6 4.9h.1l.4.1c-1.5.6-2.9 1.3-4.4 2.1-.4.2-.8.5-1.2.8-.2.1-.4.4-.6.6l-.4.6c-.5.9-.9 1.8-1.3 2.6-1.5 3.5-2.6 7.2-3.6 10.8l-.7 2.8c-.2.9-.4 1.9-.5 2.9-.2 1.9-.4 3.8-.5 5.7-.3 3.6-.4 7.3-.4 10.9h-8.4zm29.6.4-21.3-.3c.7-3.6 1.3-7.2 1.8-10.8.3-1.9.5-3.7.9-5.6.2-.9.3-1.8.6-2.7l.7-2.7 1.5-5.4c.5-1.8 1.1-3.6 1.6-5.4.3-.9.6-1.8 1-2.6l.3-.6c.1-.1.1-.3.3-.4.3-.3.7-.6 1-.9 1.3-1 2.7-1.9 4.1-2.9l2.3.5 2.6 9.4c.9 3.3 1.8 6.6 2.6 9.8.1 3.5.1 6.9.1 10.4l-.1 10.2z" fill="#184f58" stroke-width="none" opacity="1"></path></g><g id="svga-group-head" transform="matrix(1,0,0,1,0,0)"><g id="svga-group-ears-left-move" transform="matrix(1,0,0,1,0,0)"><g id="svga-group-ears-left"><path id="SvgjsPath13490" d="M63 101.3s-1.7-4.6-3.4-7.5-4.3-6.9-5.9-7.9-2.7-.4-2.3 2.3 2.5 11.4 3 14c.6 2.6 1.9 8.4 3.4 12.2 1.5 3.8 2.5 5.5 4 .5s2.4-10.4 1.2-13.6z" fill="#f0c7b1" stroke-width="none" opacity="1"></path><path id="SvgjsPath13491" d="M67.1 106c0 1.6-.8 7.1-2.2 10.6-1.3 1.2-4.7 2.2-4.8 2.1-.1 0-.2 0-.4-.1-.4-.2-.7-.6-.9-1s-.4-.7-.6-1.1c-.3-.7-.6-1.4-.9-2.2-.6-1.5-1-3-1.5-4.6-.9-3.1-1.5-6.2-2-9.4-.6-3.1-1.2-6.2-1.9-9.3l-.5-2.3c-.2-.8-.4-1.6-.3-2.5.1-.5.3-.9.6-1.1s.6-.3 1-.2c.6.1 6.8.8 7.3 1.3 3.4 1.3 7.2 8.5 7.1 19.8zm-8.2-12.6c-.8-1.2-1.6-2.3-2.4-3.5-.8-1.1-1.6-2.3-2.5-3.1-.4-.4-.9-.7-1.4-.8-.5-.1-.9.1-1 .6-.1.6 0 1.4.1 2.2.1.8.3 1.6.4 2.3.6 3.1 1.4 6.2 2.1 9.3.7 3.1 1.5 6.1 2.4 9.1.4 1.5.9 3 1.5 4.3.3.7.6 1.4.9 2 .2.3.3.6.5.9.2.2.3.4.4.5.1 0 .1 0 .3-.1.1-.1.1-.2.2-.3.1-.1.1-.2.2-.4.3-.6.5-1.2.7-1.9.4-1.4.9-2.7 1.2-4.2.4-1.4.7-2.9.8-4.4s.1-3.2-.4-4.6c-1-2.9-2.4-5.6-4-7.9z" fill="#e1ac8f" stroke-width="none" opacity="1"></path><path id="SvgjsPath13492" d="M52.1 88.9c3.2 3.5 5.8 9.5 6.2 15.1 0 .4-.3.4-.4.1l-.3-1.5c-.3-.7-.8-.8-1.4-.2.1.4.1.9.2 1.3.1.6.3 1.1.5 1.7.5 1.3 1.2 2.3 1.8 3.5.1.2 0 .6-.2.5-1.5-1.3-3.1-4.8-3-7.3 0-.8.3-1.4.8-1.5.3 0 .6.1.8.4-1.1-4.4-2.7-8-5.2-11.6-.1-.4.1-.7.2-.5z" fill="#d19271" stroke-width="none" opacity="1"></path></g></g><g id="svga-group-ears-right-move" transform="matrix(1,0,0,1,0,0)"><g id="svga-group-ears-right"><path id="SvgjsPath13493" d="M137 101.3s1.7-4.6 3.4-7.5 4.3-6.9 5.9-7.9c1.6-1 2.7-.4 2.3 2.3-.5 2.7-2.5 11.4-3 14-.6 2.6-1.9 8.4-3.4 12.2-1.5 3.8-2.5 5.5-4 .5s-2.4-10.4-1.2-13.6z" fill="#f0c7b1" stroke-width="none" opacity="1"></path><path id="SvgjsPath13494" d="M140.1 86.2c.5-.5 6.7-1.2 7.3-1.3.3 0 .7 0 1 .2s.5.7.6 1.1c.1.9-.1 1.8-.3 2.5l-.5 2.3c-.7 3.1-1.3 6.2-1.9 9.3-.6 3.1-1.2 6.3-2 9.4-.4 1.5-.9 3.1-1.5 4.6-.3.7-.6 1.4-.9 2.2-.2.4-.4.7-.6 1.1-.2.3-.5.7-.9 1-.1 0-.2.1-.4.1-.1 0-3.5-1-4.8-2.1-1.4-3.5-2.2-9-2.2-10.6-.2-11.3 3.6-18.5 7.1-19.8zm-3.1 15.1c-.5 1.5-.6 3.1-.4 4.6.1 1.5.4 3 .8 4.4l1.2 4.2c.2.7.4 1.3.7 1.9.1.2.1.3.2.4.1.1.1.2.2.3.1.1.2.2.3.1s.3-.2.4-.5c.2-.3.3-.6.5-.9.3-.6.6-1.4.9-2 .6-1.4 1-2.8 1.5-4.3.9-3 1.6-6 2.4-9.1.8-3.1 1.5-6.2 2.1-9.3.2-.8.3-1.6.4-2.3.1-.8.2-1.6.1-2.2-.1-.6-.5-.8-1-.6-.5.1-1 .4-1.4.8-.9.8-1.7 2-2.5 3.1s-1.6 2.3-2.4 3.5c-1.5 2.3-2.9 5-4 7.9z" fill="#e1ac8f" stroke-width="none" opacity="1"></path><path id="SvgjsPath13495" d="M147.9 88.9c-3.2 3.5-5.8 9.5-6.2 15.1 0 .4.3.4.4.1l.3-1.5c.3-.7.8-.8 1.4-.2-.1.4-.1.9-.2 1.3-.1.6-.3 1.1-.5 1.7-.5 1.3-1.2 2.3-1.8 3.5-.1.2 0 .6.2.5 1.5-1.3 3.1-4.8 3-7.3 0-.8-.3-1.4-.8-1.5-.3 0-.6.1-.8.4 1.1-4.4 2.7-8 5.2-11.6.1-.4-.1-.7-.2-.5z" fill="#d19271" stroke-width="none" opacity="1"></path></g></g><g id="svga-group-faceshape-wrap"><g id="svga-group-faceshape-single"><path id="SvgjsPath13576" d="M143.2 82v-.3c-1.3-29.9-20.7-46.4-43.2-46.4S58.1 51.8 56.9 81.7v.3c.1 9.4-.6 25.5 2 31.6 1.3 3.1 13.8 23.8 23.4 34.2 5.5 6.1 8.4 6.5 17.7 6.5 9.3 0 12.2-.4 17.7-6.5 9.6-10.4 22.1-31.1 23.4-34.2 2.6-6.1 1.9-22.2 2.1-31.6z" fill="#f0c7b1" stroke-width="none" opacity="1"></path><path id="SvgjsPath13577" d="M117.7 147.8c9.6-10.4 22.1-31.1 23.4-34.2 2.6-6.1 1.9-22.2 2.1-31.6v-.3c-1.3-29.9-20.7-46.4-43.2-46.4S58.1 51.8 56.9 81.7v.3c.1 9.4-.6 25.5 2 31.6 1.3 3.1 13.8 23.8 23.4 34.2 5.5 6.1 8.4 6.5 17.7 6.5s12.2-.4 17.7-6.5zm-30.3 1.4c-1.2-.9-2.3-2-3.4-3.2-2.3-2.4-4.4-6-6.5-8.6-4.2-5.3-8.1-10.8-11.9-16.3-.9-1.4-1.9-2.8-2.8-4.2-.5-.7-.9-1.4-1.3-2.1l-.6-1c-.2-.3-.4-.6-.5-1-.6-1.3-.9-2.9-1.2-4.5s-.5-3.3-.7-4.9c-.6-6.7-.7-13.5-.8-20.3 0-6.7 1.1-13.4 3.6-19.7.1-.4.3-.8.4-1.2l.6-1.1 1.1-2.2c.3-.8.8-1.4 1.3-2.2l1.3-2.1 1.5-2c.5-.6 1-1.3 1.6-1.9 1.2-1.2 2.2-2.4 3.5-3.4.6-.5 1.3-1.1 1.9-1.6l2-1.4 1-.7c.3-.2.7-.4 1.1-.6l2.1-1.2c.7-.4 1.5-.6 2.2-1 .8-.3 1.5-.7 2.3-.9 1.6-.5 3.1-1 4.7-1.3 6.3-1.4 12.9-1.5 19.2-.1l2.4.5 2.3.7c1.6.4 3 1.1 4.5 1.7.8.3 1.4.8 2.1 1.1.7.4 1.5.7 2.1 1.2 1.3.9 2.8 1.7 4 2.8 5.1 4.1 9.3 9.5 12 15.6 2.7 6.1 4.1 12.9 4.4 19.6-.1 3.4-.1 6.8-.2 10.2-.1 3.4-.2 6.8-.6 10.2-.3 3.3-.8 6.8-1.8 9.8l-.5 1.1c-.2.3-.4.7-.6 1-.4.7-.9 1.4-1.3 2.1-.9 1.4-1.9 2.8-2.9 4.2-2 2.8-4 5.5-6 8.2-1 1.3-2 2.7-3.1 4-1 1.3-2.1 2.7-3.1 4-2.1 2.6-4.2 6.2-6.5 8.6-2.2 2.5-4.4 4.7-6.9 5.5-2.5.9-5.8.9-9.2.9-3.3 0-6.8.1-9.4-.6-1.1-.2-2.2-.8-3.4-1.7z" fill="#c27b55" stroke-width="none" opacity="1"></path></g></g><g id="svga-group-mouth-single-move" transform="matrix(1,0,0,1,0,0)"><g id="svga-group-mouth-single"><path id="SvgjsPath13681" d="M89.47 129.26c7.15 4.25 15.5 3.75 21.52.68.34-.17.08-.61-.24-.56-3.56.54-6.71 1.36-10.36 1.39-3.63.03-7.5-.8-10.8-1.91-.31-.1-.22.35-.12.4z" fill="#d19271" stroke-width="none" opacity="1" transform="translate(0 2)"></path><path id="SvgjsPath13682" d="M108.72 128.48c-2.29.41-4.47 1.09-6.8 1.27-2.34.18-4.58-.1-6.9-.33-.24-.02-.29.35-.08.41 4.27 1.17 9.93 1.12 13.97-.81.32-.15.12-.59-.19-.54z" fill="#f8d5c3" stroke-width="none" opacity="1" transform="translate(0 2)"></path><path id="SvgjsPath13683" d="M99.53 122.55c-3.63-.05-7.67.28-9.65.6-3.06.5-4.82-.23-4.95.4-.09.41 5.65 1.29 7.28 1.43 1.63.13 4.66 1.62 7.09 1.88 2.43.27 4.02-.95 5.95-1.39 1.93-.43 6.6-.78 8.04-1 1.9-.26 3.41-1.29.32-1.14-.46.02-.93.01-1.39-.03-2.66-.26-8.31-.69-12.69-.75z" fill="#da7c87" stroke-width="none" opacity="1" transform="translate(0 2)"></path></g></g><g id="svga-group-eyes-left-move" transform="matrix(1,0,0,1,0,0)"><g id="svga-group-eyes-left"><g id="svga-group-eyesback-left"><path id="SvgjsPath13530" d="M89.9 97.6c0-.1-.5-2.9-2.5-4.8s-5.1-3.6-8.7-2.7c-3.5.9-5.3 2.1-7 4.3-1.6 2.2-1.7 3.4-1.7 3.4s3.4 1.1 7.6 1.1c4.1.1 9.6-.7 10.5-.9.9 0 1.8-.4 1.8-.4z" fill="#ffffff" stroke-width="none" opacity="1"></path></g><g id="svga-group-eyesiriswrapper-left" transform="matrix(1,0,0,1,0,0)"><g id="svga-group-eyesiriscontrol-left" transform="matrix(1,0,0,1,0,0)"><g id="svga-group-eyesiris-left"><path id="SvgjsPath13611" d="M80.1 88.3c2.9 0 5.2 2.3 5.2 5.2s-2.3 5.2-5.2 5.2-5.2-2.3-5.2-5.2 2.3-5.2 5.2-5.2z" fill="#604726" stroke-width="none" opacity="1"></path><path id="SvgjsPath13612" d="M80.1 88.6c2.7 0 4.9 2.2 4.9 4.9s-2.2 4.9-4.9 4.9-4.9-2.2-4.9-4.9 2.1-4.9 4.9-4.9m0-.5c-3 0-5.5 2.4-5.5 5.5 0 3 2.4 5.5 5.5 5.5 3 0 5.5-2.4 5.5-5.5s-2.5-5.5-5.5-5.5z" fill="#412b0d" stroke-width="none" opacity="1"></path><path id="SvgjsPath13613" d="M82.7 89c-.1.3-.3.7-.5 1-.2.3-.4.6-.7.9.1-.3.3-.7.5-1 .2-.4.4-.7.7-.9zm.7.6-.6.9c-.2.3-.5.6-.8.8l.6-.9c.3-.3.5-.6.8-.8zm-.9 2c.2-.3.4-.5.6-.7.2-.2.5-.4.8-.5-.2.3-.4.5-.6.7-.2.2-.5.4-.8.5zm.3.6c.3-.2.6-.3.9-.4.3-.1.6-.2 1-.3-.3.2-.6.3-.9.4-.4.2-.7.3-1 .3zm.3.5c.3-.1.6-.2.9-.2s.6-.1.9-.1c-.3.1-.6.2-.9.2-.3.1-.6.2-.9.1zm.1.7c.2 0 .3-.1.5-.1h.5c.3 0 .6.1.9.2-.3.1-.6 0-.9 0-.2 0-.3 0-.4-.1-.3.1-.5.1-.6 0zm-.2.6c.3 0 .6.1.9.1l.9.3c-.3 0-.6-.1-.9-.1-.3 0-.6-.1-.9-.3zm0 .7c.2 0 .3.1.4.1.1.1.3.1.4.2.3.1.5.3.7.5-.3-.1-.6-.2-.8-.3-.1-.1-.3-.1-.4-.2 0-.1-.2-.2-.3-.3zm-.5.8c.3.1.5.2.7.4.2.2.4.3.6.6-.3-.1-.5-.2-.7-.4l-.6-.6zm-.9-6.8c0 .3-.1.7-.2 1-.1.3-.2.6-.4.9 0-.3.1-.7.2-1 .1-.3.2-.7.4-.9zm-1.3 1.7c-.1-.3 0-.7 0-1 0-.3.1-.7.2-1 .1.3 0 .7 0 1s-.1.7-.2 1zm-1.1-2c.1.3.2.7.3 1 .1.3.1.7.1 1-.1-.3-.2-.6-.3-1 0-.2-.1-.3-.1-.5v-.5zm-1.1.4c.2.3.3.6.4.9.1.3.2.7.3 1-.2-.3-.3-.6-.4-.9-.2-.3-.3-.7-.3-1zm-.9.5c.2.2.5.5.7.8s.4.6.5.9c-.2-.2-.5-.5-.7-.8-.2-.3-.4-.5-.5-.9zm-1 .9c.3.2.7.4.9.7.3.2.6.5.8.8-.3-.2-.7-.4-.9-.7-.3-.3-.6-.5-.8-.8zm-.3 1c.3.1.5.2.8.3.2.1.5.3.7.5-.3-.1-.5-.2-.8-.3-.3-.1-.5-.3-.7-.5zm-.5 1c.3 0 .5 0 .8.1s.5.1.7.3c-.3 0-.5 0-.8-.1s-.4-.1-.7-.3zm-.2 1.2c.3-.1.6-.1.8-.1s.6 0 .8.1c-.3.1-.6.1-.8.1-.2 0-.5-.1-.8-.1zm.1.9c.2-.1.5-.2.8-.2.3-.1.5-.1.8-.1-.2.1-.5.2-.8.2-.2.1-.5.1-.8.1zm.1.9c.3-.2.6-.3.9-.3s.6-.2.9-.2c-.3.2-.6.3-.9.3-.3.1-.6.2-.9.2zm.5.9c.2-.2.5-.3.8-.5.3-.1.5-.2.8-.3-.2.2-.5.3-.8.5-.2.1-.5.2-.8.3zm.8.9c.1-.2.3-.4.5-.6.2-.2.4-.4.6-.5-.1.2-.3.4-.5.6-.2.2-.4.4-.6.5zm.9.8c.1-.3.2-.7.4-.9.2-.3.3-.6.6-.9-.1.3-.2.7-.4.9-.2.4-.4.7-.6.9zm1.1.4c0-.3 0-.5.1-.8.1-.3.2-.5.3-.8 0 .3 0 .5-.1.8 0 .3-.1.5-.3.8zm2.7-1.8c.2.2.2.5.3.7.1.3.2.5.2.8-.2-.2-.2-.5-.3-.7-.1-.2-.2-.5-.2-.8zm.7-.3c.2.2.4.4.5.6.2.2.3.4.4.7-.2-.2-.4-.4-.5-.6-.2-.2-.3-.4-.4-.7zm-1.5.6c.1.2.1.5.2.8v.8c-.1-.2-.1-.5-.2-.8v-.8zm-.7.1c.1.2.1.5.1.7 0 .3 0 .5-.1.8-.1-.3-.1-.5-.1-.8 0-.2.1-.5.1-.7z" fill="#321f05" stroke-width="none" opacity="1"></path><path id="SvgjsPath13614" d="M80.1 90.6c1.6 0 2.9 1.3 2.9 2.9s-1.3 2.9-2.9 2.9-2.9-1.3-2.9-2.9 1.2-2.9 2.9-2.9z" fill="#000000" stroke-width="none" opacity="1"></path><path id="SvgjsPath13615" d="m79.3 91.1-.6-.6c-.2-.2-.5-.3-.7-.3-.2 0-.6.1-.7.3-.2.2-.3.5-.3.8 0 .3.1.5.3.7l.6.6c.2.2.5.3.7.3.2 0 .6-.1.7-.3.4-.4.4-1.1 0-1.5zm2.8 5c.9 0 .9-1.5 0-1.5s-1 1.5 0 1.5z" fill="#ffffff" stroke-width="none" opacity="1"></path></g></g></g><g id="svga-group-eyesfront-left"><path id="SvgjsPath13538" d="M69.4 94.6c0 6.4 4.7 11.5 10.6 11.5s10.6-5.2 10.6-11.5S85.9 83.1 80 83.1s-10.6 5.1-10.6 11.5zm.7 3.3s.1-1.2 1.7-3.4c1.6-2.2 3.4-3.4 7-4.3s6.7.7 8.7 2.7c2 1.9 2.4 4.8 2.5 4.8 0 0-.9.3-1.8.5s-6.3 1-10.5.9c-4.2-.2-7.6-1.2-7.6-1.2z" fill="#f0c7b1" stroke-width="none" opacity="1"></path><path id="SvgjsPath13539" d="M90.1 96.2c-1.1-4.4-4.7-7.9-9.4-8.1-4.5-.2-8 2.5-9.9 6.5-.1.2-.3 0-.3-.1 1.4-4.4 5.9-7.3 10.5-6.8 4.7.5 8.3 3.9 9.1 8.5z" fill="#e1ac8f" stroke-width="none" opacity="1"></path><path id="SvgjsPath13540" d="M69.7 98.1c.1.2.3.3.4.2 2.7 1.2 6.5 1.2 9.3 1.2 3.4 0 7.1-.3 10.3-1.5.1.2.4.2.4-.1-.3-5-5.2-8.7-10-8.6-4.7.1-9.7 3.6-10.4 8.4-.1.1-.2.3 0 .4zm4 .2c-1.1-.2-2.1-.4-3.2-.5 2.1-3.8 4.6-7 9.3-7.3 4.9-.3 8.3 2.7 9.8 7-3.4.6-6.7 1.3-10.2 1.3-1.8-.1-3.8-.2-5.7-.5z" fill="#000000" stroke-width="none" opacity="1"></path></g></g></g><g id="svga-group-eyes-right-move" transform="matrix(1,0,0,1,0,0)"><g id="svga-group-eyes-right"><g id="svga-group-eyesback-right"><path id="SvgjsPath13531" d="M110.1 97.6c0-.1.5-2.9 2.5-4.8s5.1-3.6 8.7-2.7c3.5.9 5.3 2.1 7 4.3 1.6 2.2 1.7 3.4 1.7 3.4s-3.4 1.1-7.6 1.1c-4.1.1-9.6-.7-10.5-.9-.9 0-1.8-.4-1.8-.4z" fill="#ffffff" stroke-width="none" opacity="1"></path></g><g id="svga-group-eyesiriswrapper-right" transform="matrix(1,0,0,1,0,0)"><g id="svga-group-eyesiriscontrol-right" transform="matrix(1,0,0,1,0,0)"><g id="svga-group-eyesiris-right"><path id="SvgjsPath13616" d="M119.9 88.3c2.9 0 5.2 2.3 5.2 5.2s-2.3 5.2-5.2 5.2-5.2-2.3-5.2-5.2 2.4-5.2 5.2-5.2z" fill="#604726" stroke-width="none" opacity="1"></path><path id="SvgjsPath13617" d="M119.9 88.6c2.7 0 4.9 2.2 4.9 4.9s-2.2 4.9-4.9 4.9-4.9-2.2-4.9-4.9 2.2-4.9 4.9-4.9m0-.5c-3 0-5.5 2.4-5.5 5.5 0 3 2.4 5.5 5.5 5.5 3 0 5.5-2.4 5.5-5.5s-2.4-5.5-5.5-5.5z" fill="#412b0d" stroke-width="none" opacity="1"></path><path id="SvgjsPath13618" d="M122.6 89c-.1.3-.3.7-.5 1-.2.3-.4.6-.7.9.1-.3.3-.7.5-1 .2-.4.4-.7.7-.9zm.7.6-.6.9c-.2.3-.5.6-.8.8l.6-.9c.3-.3.5-.6.8-.8zm-.9 2c.2-.3.4-.5.6-.7.2-.2.5-.4.8-.5-.2.3-.4.5-.6.7-.3.2-.5.4-.8.5zm.3.6c.3-.2.6-.3.9-.4.3-.1.6-.2 1-.3-.3.2-.6.3-.9.4-.4.2-.7.3-1 .3zm.3.5c.3-.1.6-.2.9-.2s.6-.1.9-.1c-.3.1-.6.2-.9.2-.3.1-.6.2-.9.1zm.1.7c.2 0 .3-.1.5-.1h.5c.3 0 .6.1.9.2-.3.1-.6 0-.9 0-.2 0-.3 0-.4-.1-.3.1-.5.1-.6 0zm-.2.6c.3 0 .6.1.9.1l.9.3c-.3 0-.6-.1-.9-.1-.3 0-.6-.1-.9-.3zm0 .7c.2 0 .3.1.4.1.1.1.3.1.4.2.3.1.5.3.7.5-.3-.1-.6-.2-.8-.3-.1-.1-.3-.1-.4-.2 0-.1-.2-.2-.3-.3zm-.5.8c.3.1.5.2.7.4.2.2.4.3.6.6-.3-.1-.5-.2-.7-.4l-.6-.6zm-.9-6.8c0 .3-.1.7-.2 1-.1.3-.2.6-.4.9 0-.3.1-.7.2-1 .1-.3.2-.7.4-.9zm-1.3 1.7c-.1-.3 0-.7 0-1 0-.3.1-.7.2-1 .1.3 0 .7 0 1s-.1.7-.2 1zm-1.1-2c.1.3.2.7.3 1 .1.3.1.7.1 1-.1-.3-.2-.6-.3-1 0-.2-.1-.3-.1-.5v-.5zm-1.1.4c.2.3.3.6.4.9.1.3.2.7.3 1-.2-.3-.3-.6-.4-.9-.2-.3-.3-.7-.3-1zm-.9.5c.2.2.5.5.7.8s.4.6.5.9c-.2-.2-.5-.5-.7-.8-.2-.3-.4-.5-.5-.9zm-1 .9c.3.2.7.4.9.7.3.2.6.5.8.8-.3-.2-.7-.4-.9-.7-.3-.3-.6-.5-.8-.8zm-.3 1c.3.1.5.2.8.3.2.1.5.3.7.5-.3-.1-.5-.2-.8-.3-.3-.1-.5-.3-.7-.5zm-.5 1c.3 0 .5 0 .8.1s.5.1.7.3c-.3 0-.5 0-.8-.1s-.4-.1-.7-.3zm-.2 1.2c.3-.1.6-.1.8-.1s.6 0 .8.1c-.3.1-.6.1-.8.1-.2 0-.5-.1-.8-.1zm.1.9c.2-.1.5-.2.8-.2.3-.1.5-.1.8-.1-.2.1-.5.2-.8.2-.2.1-.5.1-.8.1zm.1.9c.3-.2.6-.3.9-.3s.6-.2.9-.2c-.3.2-.6.3-.9.3-.3.1-.6.2-.9.2zm.5.9c.2-.2.5-.3.8-.5.3-.1.5-.2.8-.3-.2.2-.5.3-.8.5-.3.1-.5.2-.8.3zm.8.9c.1-.2.3-.4.5-.6.2-.2.4-.4.6-.5-.1.2-.3.4-.5.6-.2.2-.4.4-.6.5zm.9.8c.1-.3.2-.7.4-.9.2-.3.3-.6.6-.9-.1.3-.2.7-.4.9-.2.4-.4.7-.6.9zm1.1.4c0-.3 0-.5.1-.8.1-.3.2-.5.3-.8 0 .3 0 .5-.1.8-.1.3-.1.5-.3.8zm2.7-1.8c.2.2.2.5.3.7.1.3.2.5.2.8-.2-.2-.2-.5-.3-.7-.1-.2-.2-.5-.2-.8zm.7-.3c.2.2.4.4.5.6.2.2.3.4.4.7-.2-.2-.4-.4-.5-.6-.2-.2-.3-.4-.4-.7zm-1.5.6c.1.2.1.5.2.8v.8c-.1-.2-.1-.5-.2-.8v-.8zm-.7.1c.1.3.1.5.1.8 0 .3 0 .5-.1.8-.1-.3-.1-.5-.1-.8 0-.3.1-.6.1-.8z" fill="#321f05" stroke-width="none" opacity="1"></path><path id="SvgjsPath13619" d="M119.9 90.6c1.6 0 2.9 1.3 2.9 2.9s-1.3 2.9-2.9 2.9-2.9-1.3-2.9-2.9 1.3-2.9 2.9-2.9z" fill="#000000" stroke-width="none" opacity="1"></path><path id="SvgjsPath13620" d="m119.2 91.1-.6-.6c-.2-.2-.5-.3-.7-.3-.2 0-.6.1-.7.3-.2.2-.3.5-.3.7 0 .3.1.5.3.7l.6.6c.2.2.5.3.7.3.2 0 .6-.1.7-.3.4-.3.4-1 0-1.4zm2.7 5c.9 0 .9-1.5 0-1.5s-.9 1.5 0 1.5z" fill="#ffffff" stroke-width="none" opacity="1"></path></g></g></g><g id="svga-group-eyesfront-right"><path id="SvgjsPath13541" d="M120 83.1c-5.9 0-10.6 5.2-10.6 11.5s4.7 11.5 10.6 11.5 10.6-5.2 10.6-11.5-4.8-11.5-10.6-11.5zm2.3 15.9c-4.1.1-9.6-.7-10.5-.9-.9-.2-1.8-.5-1.8-.5 0-.1.5-2.9 2.5-4.8s5.1-3.6 8.7-2.7 5.3 2.1 7 4.3c1.6 2.2 1.7 3.4 1.7 3.4s-3.4 1.1-7.6 1.2z" fill="#f0c7b1" stroke-width="none" opacity="1"></path><path id="SvgjsPath13544" d="M109.9 96.2c1.1-4.4 4.7-7.9 9.4-8.1 4.5-.2 8 2.5 9.9 6.5.1.2.3 0 .3-.1-1.4-4.4-5.9-7.3-10.5-6.8-4.7.5-8.3 3.9-9.1 8.5z" fill="#e1ac8f" stroke-width="none" opacity="1"></path><path id="SvgjsPath13545" d="M130.3 97.7c-.7-4.8-5.8-8.3-10.4-8.4-4.8-.1-9.7 3.6-10 8.6 0 .2.3.3.4.1 3.3 1.1 6.9 1.5 10.3 1.5 2.8 0 6.6 0 9.3-1.2.2.1.4 0 .4-.2.2-.1.1-.3 0-.4zm-9.8 1c-3.5 0-6.8-.6-10.2-1.3 1.5-4.4 4.9-7.3 9.8-7 4.7.3 7.2 3.6 9.3 7.3-1.1.1-2.1.4-3.2.5-1.8.4-3.8.5-5.7.5z" fill="#000000" stroke-width="none" opacity="1"></path></g></g></g><g id="svga-group-facehighlight-single"></g><g id="svga-group-eyebrows-left-move" transform="matrix(1,0,0,1,0,0)"><g id="svga-group-eyebrows-left-rotate" transform="matrix(1,1.7453292519943295e-9,-1.7453292519943295e-9,1,1.4176201545978984e-7,-1.3606350535155798e-7)"><g id="svga-group-eyebrows-left"><path id="SvgjsPath13447" d="M67 82.5c.1-.3.3-.6.5-.8.1-.2.3-.5.5-.7.2-.2.4-.4.7-.6.5-.9 1.7-1.6 2.5-2.1.9-.5 1.8-.9 2.9-.9 1-.2 2.1-.2 2.9.2.4 0 .7.1 1 .3 1.1-.1 2.3.2 3.3.4 1.4.3 2.8.6 4.1 1.2 1.4 0 2.8.1 4.1.5h.2c.1 0 .2.1.2.1h.1c.1 0 .2.1.3.2.1.1 0 .3 0 .4v.1c0 .2 0 .4-.1.6 0 .6-.1 1.1-.5 1.6 0 .1 0 .2-.1.3-.1.5-.2 1.1-.7 1.4-.2.2-.5.3-.8.3-.1 0-.2 0-.3-.1h-.6c-.6.2-1.4 0-1.9-.1-.6-.1-1.2-.3-1.7-.6-1.8-.3-3.5-.8-5.3-1.2-1.6-.4-4-.4-5.4-1.3-.7.1-1.3.2-2 .2-.3 0-.7.1-1.1 0-.2 0-.5 0-.7-.2 0 0-.1 0-.1-.1h-.1l-.4.4c-.3.3-.7.7-1.2.8-.1.2-.3 0-.3-.3z" fill="#2a232b" stroke-width="none" opacity="1"></path><path id="SvgjsPath13448" d="M87.7 83c-.1-.6-.2-1.2-.4-1.7 0-.2.2-.3.3-.1.7 1 .9 2.8.2 3.9-.1.2-.3.1-.3-.1.1-.8.2-1.4.2-2zm-3.4-3.2c1.3.8 2.1 2.6 2.1 4 0 .2-.3.3-.3.1-.2-.7-.4-1.3-.7-1.9-.3-.7-.9-1.2-1.3-1.9-.3-.2 0-.4.2-.3zm-3.3-.7c2.2.8 3.8 3.2 4.2 5.3 0 .2-.2.2-.3.1-.4-1-.9-2-1.7-2.8-.7-.9-1.6-1.4-2.5-2.2-.2-.1.1-.5.3-.4zm-4.9-.8c2.4.6 4.8 2.6 5.8 4.7.1.2-.3.4-.4.2-.8-1-1.6-1.9-2.6-2.7-.9-.7-2-1.2-3-1.8-.2-.1-.1-.4.2-.4zM67.4 82c1.6-1.8 3.8-4.3 6.5-4 .2 0 .2.3 0 .3-2.6.2-4.3 2.5-6.3 3.9-.2.1-.4-.1-.2-.2z" fill="#3a353a" stroke-width="none" opacity="1"></path><path id="SvgjsPath13449" d="M90.9 80.6c-.1-.3-.5-.3-.6 0-.3 1.1-.3 2.4-1.2 3.3-.6.7-1.5.8-2.4.7.3-1.5.2-3.7-.8-4.9-.2-.2-.5-.1-.4.2 0 .8.4 1.6.5 2.4.1.8.2 1.5.2 2.3-.1 0-.2 0-.3-.1-.3-2-1.3-4.1-2.8-5.5 2.3.5 4.6.9 6.9 1.1.1 0 .2-.2.1-.2-2.6-.9-5.3-1.4-8-2-2.4-.5-5.1-1.4-7.6-1.5-2.1-.1-3.6.9-5 2.2-1.5 1.4-3.1 3.1-4.1 4.9l-.2.2c-.1.1-.2.3-.1.4 0 0 0 .1-.1.1-.2.4.3.7.6.4.1 0 .2 0 .3-.1 1.4-.7 2.5-1.4 4.1-1.6 1.3-.2 2.7-.1 4 .1 2.9.4 5.6 1.3 8.3 2.1 2.1.6 4.9 1.7 6.9.2 1.7-1 1.9-3.1 1.7-4.7zm-13.4 1.3c-.5-.1-1.1-.2-1.7-.3.1-1.1-.3-2.3-.8-3.3.7.6 1.4 1.2 2 1.9.6.6.9 1.4 1.5 2-.4-.1-.7-.2-1-.3zM70 79.5c1.2-1.1 2.5-1.7 4-1.9.2.8.6 1.6.7 2.4l.3 1.5c-.3 0-.7-.1-1-.1-.5-.9-1.3-1.8-2.3-2.1-.2-.1-.3.2-.2.4.4.4.9.8 1.3 1.2.1.2.2.3.4.5-1.9-.1-3.8.1-5.4.8.6-1 1.3-1.9 2.2-2.7zm15.2 4.8c-.2-.1-.4-.1-.6-.2-.4-.1-.9-.3-1.3-.4-.8-1.8-2.1-3.6-3.7-4.8-.2-.1-.4.1-.3.2 1.2 1.4 2.2 2.9 3.3 4.4-1.1-.4-2.2-.7-3.2-1.1-.2-1.1-1.2-2.2-1.9-3-.7-.7-1.5-1.4-2.4-1.9.4 0 .8.1 1.3.1 2 .3 4 .8 6 1.2v.1c.7 1.1 1.5 2.2 2.1 3.3.2.7.4 1.4.7 2.1z" fill="#1b141c" stroke-width="none" opacity="1"></path></g></g></g><g id="svga-group-eyebrows-right-move" transform="matrix(1,0,0,1,0,0)"><g id="svga-group-eyebrows-right-rotate" transform="matrix(1,1.7453292519943295e-9,-1.7453292519943295e-9,1,1.4176202967064455e-7,-2.127084570702209e-7)"><g id="svga-group-eyebrows-right"><path id="SvgjsPath13450" d="M133 82.5c-.1-.3-.3-.6-.5-.8-.1-.2-.3-.5-.5-.7-.2-.2-.4-.4-.7-.6-.5-.9-1.7-1.6-2.5-2.1-.9-.5-1.8-.9-2.9-.9-1-.2-2.1-.2-2.9.2-.4 0-.7.1-1 .3-1.1-.1-2.3.2-3.3.4-1.4.3-2.8.6-4.1 1.2-1.4 0-2.8.1-4.1.5h-.2c-.1 0-.2.1-.2.1h-.1c-.1 0-.2.1-.3.2-.1.1 0 .3 0 .4v.1c0 .2 0 .4.1.6 0 .6.1 1.1.5 1.6 0 .1 0 .2.1.3.1.5.2 1.1.7 1.4.2.2.5.3.8.3.1 0 .2 0 .3-.1h.6c.6.2 1.4 0 1.9-.1.6-.1 1.2-.3 1.7-.6 1.8-.3 3.5-.8 5.3-1.2 1.6-.4 4-.4 5.4-1.3.7.1 1.4.2 2 .2.3 0 .7.1 1.1 0 .2 0 .5 0 .7-.2 0 0 .1 0 .1-.1h.1l.4.4c.3.3.7.7 1.2.8.1.2.3 0 .3-.3z" fill="#2a232b" stroke-width="none" opacity="1"></path><path id="SvgjsPath13451" d="M112.3 83c.1-.6.2-1.2.4-1.7 0-.2-.2-.3-.3-.1-.7 1-.9 2.8-.2 3.9.1.2.3.1.3-.1-.1-.8-.2-1.4-.2-2zm3.4-3.2c-1.3.8-2.1 2.6-2.1 4 0 .2.3.3.3.1.2-.7.4-1.3.7-1.9.3-.7.9-1.2 1.3-1.9.3-.2 0-.4-.2-.3zm3.3-.7c-2.2.8-3.8 3.2-4.2 5.3 0 .2.2.2.3.1.4-1 .9-2 1.7-2.8.7-.9 1.6-1.4 2.5-2.2.2-.1-.1-.5-.3-.4zm4.9-.8c-2.4.6-4.8 2.6-5.8 4.7-.1.2.3.4.4.2.8-1 1.6-1.9 2.6-2.7.9-.7 2-1.2 3-1.8.2-.1.1-.4-.2-.4zm8.7 3.7c-1.6-1.8-3.8-4.3-6.5-4-.2 0-.2.3 0 .3 2.6.2 4.3 2.5 6.3 3.9.2.1.4-.1.2-.2z" fill="#3a353a" stroke-width="none" opacity="1"></path><path id="SvgjsPath13452" d="M110.6 85.3c2 1.5 4.8.4 6.9-.2 2.8-.8 5.5-1.8 8.3-2.1 1.3-.2 2.7-.3 4-.1 1.6.2 2.7.9 4.1 1.6.1.1.2.1.3.1.3.3.8 0 .6-.4 0 0 0-.1-.1-.1 0-.1 0-.3-.1-.4l-.2-.2c-1-1.8-2.6-3.5-4.1-4.9-1.4-1.3-2.9-2.3-5-2.2-2.5.1-5.2 1-7.6 1.5-2.7.6-5.4 1.1-8 2-.2.1-.1.2.1.2 2.3-.2 4.6-.6 6.9-1.1-1.5 1.4-2.5 3.5-2.8 5.5-.1 0-.2 0-.3.1.1-.8.1-1.5.2-2.3.1-.8.5-1.6.5-2.4 0-.2-.3-.3-.4-.2-1 1.2-1.1 3.4-.8 4.9-.9.1-1.7 0-2.4-.7-.8-.9-.9-2.2-1.2-3.4-.1-.3-.5-.3-.6 0 0 1.7.2 3.8 1.7 4.8zm10.9-3.2c.5-.6.9-1.4 1.5-2 .6-.7 1.3-1.3 2-1.9-.5 1-.9 2.3-.8 3.3-.6.1-1.2.2-1.7.3-.3.2-.6.3-1 .3zm10.8 0c-1.6-.7-3.6-.9-5.4-.8.1-.2.2-.3.4-.5.4-.5.9-.8 1.3-1.2.1-.1.1-.4-.2-.4-1 .3-1.8 1.2-2.3 2.1-.3 0-.7.1-1 .1l.3-1.5c.2-.8.5-1.6.7-2.4 1.4.2 2.7.8 4 1.9.8.9 1.5 1.8 2.2 2.7zm-16.7.2c.6-1.2 1.4-2.2 2.1-3.3v-.1c2-.4 4-.9 6-1.2.4-.1.9-.1 1.3-.1-.9.5-1.7 1.2-2.4 1.9-.7.8-1.7 1.9-1.9 3-1.1.3-2.2.7-3.2 1.1 1-1.5 2.1-2.9 3.3-4.4.1-.2-.1-.3-.3-.2-1.6 1.2-2.9 3-3.7 4.8-.4.1-.9.3-1.3.4-.2.1-.4.1-.6.2.2-.8.4-1.5.7-2.1z" fill="#1b141c" stroke-width="none" opacity="1"></path></g></g></g><g id="svga-group-beardwrap"><g id="svga-group-beard-single-move" transform="matrix(1,0,0,1,0,0)"><g id="svga-group-beard-single"><path id="SvgjsPath13438" d="M90.9 134.6s8.5 2.7 18.5.5c0 0-.7 3.4-1.7 5.2-1 1.8-2.7 3.8-2.7 3.8l.2-.9s-.9 1-1.9 1.6l-.1-.6s-1 .9-2.5 1.5l-2-.8.1.4s-2.4-.5-3.6-2.4l-.2.5c-.1.2-3.8-3.6-4.1-8.8z" fill="#2a232b" stroke-width="none" opacity="1"></path><path id="SvgjsPath13439" d="M94.4 140.9c-.1-.2-.4-.1-.3.1.2.7.6 1.4 1 1.9-.7-.7-1.4-1.5-1.9-2.5-.6-1.2-1-2.5-1.5-3.8 0-.1-.1-.1-.2-.1-.1-.6-.2-1.1-.2-1.8 0-.2-.3-.2-.3 0-.4 2.2.4 4.8 1.8 6.6.1.1.2.1.2 0 .6 1.1 1.5 2 2.5 2.3.1 0 .1 0 .1-.1.3.3.6.6 1 .8.2.1.3-.1.2-.2-1-1-1.9-1.9-2.4-3.2zm8.4 2.3c-.8.8-1.5 1.7-2.4 2.4-.4-.4-.8-.7-1.2-1-.4-.4-.8-.9-1.2-1.4-.2-.2-.6 0-.4.2.3.5.8 1.1 1.2 1.5l.2.2c-.5-.4-1-.7-1.4-1.1-.5-.5-.9-1-1.3-1.6-.2-.2-.5 0-.3.2.6 1.2 1.5 2.8 3.1 2.9.2 0 .2-.2.2-.3.3.3.6.5.9.6-.1.2.1.4.3.3 1.1-.7 2.1-1.6 2.6-2.8 0 0-.2-.2-.3-.1zm1.8-.4c-.3.3-.5.6-.8.9-.3.2-.6.5-.9.8-.1.1 0 .1 0 .1l-.2.2c-.1.1 0 .3.2.2.8-.4 1.5-1.2 1.9-2.1 0-.1-.1-.3-.2-.1zm2-2.1c-.6 1.2-1.3 2.3-2.3 3.2-.2.1.1.4.2.2 1-.9 1.8-2.1 2.2-3.4h-.1zm2.7-5.4c0-.2-.2-.2-.3 0-.3.9-.4 1.9-.7 2.8l-.3.9c-.5 1.1-1 2.1-1.7 3-.1.2.2.3.3.2.3-.4.6-.8.8-1.3.1.1.2.1.3 0 1.1-1.5 1.8-3.7 1.6-5.6zm-14.7 5.6c.3.4.7.8 1.2 1.1.1.1.3-.1.2-.2-.7-1-1.5-1.9-1.9-3.1-.1-.2-.3-.1-.3 0-.2-.6-.4-1.2-.5-1.8 0-.2-.4-.2-.4.1.2 1.4.6 2.9 1.7 3.9-.1 0 0 0 0 0zm2.5 1.6c.1.1.2-.1.1-.2-.5-.5-1-1-1.4-1.6-.1-.1-.3 0-.2.1.4.6.8 1.3 1.5 1.7zm-4.2-4.9c-.1-.6-.2-1.1-.4-1.6 0-.1-.2-.1-.2.1.1.5.2 1.1.4 1.6.1 0 .2 0 .2-.1zm3.8 2.5c.2.8.6 1.6 1.1 2.3.1.1.3 0 .3-.2-.6-1.2-1.2-2.3-1.3-3.7 0-.2-.4-.2-.4 0v.4c-.2-.9-.3-1.7-.5-2.6 0-.2-.3-.1-.3 0-.1 1.3.1 2.7.7 3.9.2.1.4.1.4-.1zm1.6 1.7c.3.9.9 1.9 1.7 2.5.1.1.2-.1.1-.2-.7-.8-1.2-1.4-1.6-2.4 0-.2-.3-.1-.2.1zm2 1.2c.1.6.1 1.2.2 1.8 0 .2.3.1.3 0 .2-.6 0-1.3-.1-1.9-.1-.2-.4-.1-.4.1zm-.4-2.7c-.3-.6-.6-1.3-.7-2 0-.2-.3-.2-.3 0 .1.8.3 1.5.8 2.1.1.1.3 0 .2-.1zm.8 1.1c.1-.6-.1-1.4-.1-2 0-.2-.3-.2-.3 0 .1.7.1 1.4.2 2 0 .1.2.1.2 0zm1.7 1.9c.8-.8 1.2-1.9 1.5-2.9.1-.2-.3-.3-.4-.1-.4 1-.9 1.9-1.3 2.9-.1.1.1.2.2.1zm-4.5-3.9c.3 1.1.8 2.6 1.9 3.2.2.1.4-.1.3-.3-.3-.5-.7-1-1.1-1.5v-.2c-.3-1.3-.7-2.7-1.1-4 0-.2-.3-.1-.3 0 .1.8.2 1.7.4 2.5-.1.2-.1.2-.1.3zm6.1 3.2c.6-.6.8-1.6 1-2.4.1-.2-.3-.3-.4-.1-.1.4-.3.9-.4 1.3-.2.3-.4.6-.5 1 0 .2.2.4.3.2zm1.9-2.6c.2-.5.3-1.1.5-1.6.1-.2-.3-.3-.4-.1-.2.5-.3 1.1-.4 1.6 0 .2.2.2.3.1zm.9-.7c.4-.7.5-1.5.6-2.2 0-.2-.3-.3-.4-.1-.1.8-.4 1.5-.5 2.2 0 .1.3.3.3.1z" fill="#1b141c" stroke-width="none" opacity="1"></path></g></g></g><g id="svga-group-mustache-single-move" transform="matrix(1,0,0,1,0,0)"><g id="svga-group-mustache-single"></g></g><g id="svga-group-nose-single-move" transform="matrix(1,0,0,1,0,0)"><g id="svga-group-nose-single"><path id="SvgjsPath13662" d="M105.06 106.65c.56.92 2.64 3.61 3.09 4.9.45 1.29-.13 3.22-1.48 3.61s-3.61-.39-3.93-.19c-.32.19-1.87 2.06-2.58 1.93-.71-.13-2.64-2.13-3.03-2.13-.39 0-2.13.45-2.97.45-.84 0-2.9-.71-2.64-2.51.26-1.81 2.45-5.54 2.9-6.06.45-.52 1.48-2.32 1.74-3.42s.58-7.03.71-8.38c.13-1.35 1.35-2.97 2.58-3.09 1.23-.13 3.35.77 3.55 2.9.19 2.13.58 6.38.77 8.12.19 1.74.58 2.71 1.29 3.87z" fill="#f0c7b1" stroke-width="none" opacity="1" transform="translate(0 1)"></path><path id="SvgjsPath13663" d="M97.62 85.76c-.84 3.5-.96 7.24-1.34 10.81-.4 3.83-1.14 7.78-1.09 11.63 0 .31.48.39.55.07.78-3.52.88-7.26 1.24-10.84.39-3.82 1.1-7.79.98-11.63 0-.18-.29-.24-.34-.04z" fill="#c27b55" stroke-width="none" opacity="1" transform="translate(0 1)"></path><path id="SvgjsPath13664" d="M94.46 106.19c-1.03 1.37-1.9 2.87-2.65 4.41-.49 1-1.09 2.17-.77 3.32.53 1.89 2.93 2.49 4.5 1.58.47-.27.26-.99-.27-1-.92-.01-1.98.28-2.72-.5-.88-.94-.01-2.63.38-3.57.58-1.39 1.28-2.72 1.83-4.12.07-.19-.2-.26-.3-.12z" fill="#c27b55" stroke-width="none" opacity="1" transform="translate(0 1)"></path><path id="SvgjsPath13665" d="M94.31 113.98c2.84-.21 3.38 3.37 6.07 3.45 2.31.07 2.5-3.41 4.69-3.3.26.01.34-.35.13-.47-2.49-1.47-2.95 2.86-5.24 2.59-1.36-.16-2.32-2.16-3.54-2.73-.83-.39-1.43-.36-2.23.02-.22.09-.11.46.12.44z" fill="#c27b55" stroke-width="none" opacity="1" transform="translate(0 1)"></path><path id="SvgjsPath13666" d="M104.29 115.6c1.87.42 4.05-.16 4.49-2.24.22-1.04-.13-2.07-.67-2.95-.89-1.44-2.03-2.66-2.87-4.15-.14-.25-.49-.12-.51.14-.11 1.67 1.13 2.83 2.02 4.12.82 1.19 1.53 2.83.15 4-.63.54-1.83.44-2.6.59-.26.04-.25.43-.01.49z" fill="#c27b55" stroke-width="none" opacity="1" transform="translate(0 1)"></path><path id="SvgjsPath13667" d="M102.45 109.98c-.41-.74-1.47-.85-2.06-.26-.05.05-.24.29-.3.36-.07.09-.2.26-.23.29-.07.1-.12.21-.18.32l-.12.28c0-.01-.01.01-.03.05-.06.06-.12.13-.18.2-.18.19-.36.38-.5.6-.42.67-.08 1.42.48 1.84.87.65 2.13.13 2.74-.61.76-.89.96-2.03.38-3.07z" fill="#f8d5c3" stroke-width="none" opacity="1" transform="translate(0 1)"></path></g></g><g id="svga-group-hair-front"><path id="SvgjsPath13763" d="M99.9 58.5s-7.8-3.9-12.3-4.1C79.9 54.1 77.4 84 77.4 84s-3.8-13.2-.7-26.6c0 0-4.5 7.2-5.2 24.5 0 0-5.8-11.7-.2-27.5 0 0-6 8.3-7.3 37.7 0 0-1.5-6.9-1.5-9.9 0 0-2.3 16.2-1.3 24.5 0 0-2.5-4.5-3.6-10.6s-.8-9.3-.8-9.3-1 2.5-1.5 6.6c0 0-3.3-8.1-.7-20.7 0 0-3.5 8.6-4.3 14.4 0 0-1.3-5.6 1-16.1s7.2-18.3 7.2-18.3-3.1 3.6-7.3 10.9c0 0 1.1-13.5 15-24.9S86.8 31 86.8 31s-1.7-1.8-10.6-.2c0 0 5.8-3.1 14.6-3 8.8.2 10.9 5.1 10.9 5.1s3.8-4.3 12.4-5.8c0 0-2.5 2.1-3.3 3 0 0 4.3-1 11.9.3 0 0-3.6.3-4.6.8 0 0 7.1-.2 15.7 6.3s13.1 17 14.4 23.7c0 0-4.1-8.4-7.9-11.6 0 0 6.6 9.9 8.8 22.2l-2.3-3s2 8.3 1 17.5l-1.8-3.8s-.2 8.6-3.6 14.4l-.3-3.5s-.8 8.1-2.1 11.1c0 0 .2-17.4-1.7-24.7 0 0-.2 3.5-.5 6.1 0 0-1.7-12.9-4-16.1 0 0 .5 1.8-1.2 7.9 0 0-1.2-11.3-5.1-19.9 0 0 .3 12.4-.8 18.7 0 0-2.5-19.5-6.6-22.7 0 0 3 14.6-.2 24.7 0 0-1.4-23.6-7.3-24.6-6.1-.6-9 2.3-12.7 4.6z" fill="#2a232b" stroke-width="none" opacity="1"></path><path id="SvgjsPath13764" d="M77.7 83.4c-.1-5.9.4-11.7 2.1-17.4.7-2.5 1.5-5.6 2.9-7.9 3.2-5.1 7.6-4.4 12-2.7.3.1.4-.3.2-.5-5.6-2.9-10.2-2.5-13.1 3.5-3.6 7.6-5 16.6-4.6 24.9.1.4.5.4.5.1zM81 50.9c-6.3 5.7-5.9 15.3-5 23 0 .3.5.3.5 0-.2-8.3-.4-15.8 4.8-22.8.2-.2-.1-.4-.3-.2zm4.3-5C72.4 43.8 69 58.7 70.1 68.3c0 .2.2.2.2 0-.7-9.8 2.5-23.1 14.9-22 .2 0 .3-.3.1-.4zm15.2 11.6c6.7-3.8 13.7-6.3 16.8 3.5 1.8 5.7 2 11.5 2.2 17.4 0 .3.6.4.6.1 1-6.8.6-18.5-4.7-23.6-4.6-4.6-11.2-1-15.3 2.3-.2.1.2.5.4.3zm18.9-4c4.5 8.2 6.3 15.5 7 24.8 0 .4.5.4.6 0 .9-8.6-2.1-18.2-7.2-25.1-.2-.2-.6.1-.4.3zm6.7 3.1c3.4 6.9 4.7 13.4 6.4 20.7.1.2.4.2.4-.1.3-7.2-2.7-14.9-6.4-20.9-.2-.2-.5 0-.4.3zm-26.2-4.1c-2-2.8-4.9-5.3-8.3-6.4-.2-.1-.4.3-.2.4 3.1 1.6 5.8 3.4 7.9 6.3.4.2.8 0 .6-.3zm.8-5.5c-4.1-8.5-15.1-10.7-23.2-7.1-10.4 4.6-15.2 16-15.1 26.8 0 .3.5.3.5 0 .9-9.5 4.1-19.1 12.6-24.4 8.7-5.4 18.9-3.4 24.8 4.9.2.3.6.1.4-.2zM57.1 78.1c-1.1 7.7-.5 15.6 2.5 22.8.1.3.5.1.5-.2-1.9-7.5-3-14.7-2.5-22.5.1-.3-.4-.4-.5-.1zm4 27.2c-.1-6.1 0-12.1 0-18.2 0-.3-.5-.4-.5-.1-.9 6-.8 12.3 0 18.4 0 .3.5.2.5-.1zm-9.6-43.8C54.3 54.2 58 47.4 64 42.1c6-5.3 13-8.1 20.6-10.2.2-.1.2-.5-.1-.5C69 33.2 54.7 46.3 51.3 61.5c-.1.1.1.2.2 0zm.3 1.5c2.5-4.3 5.3-7.8 8.8-11.4.2-.3-.1-.8-.4-.5-3.9 2.8-7.2 7.2-9 11.7-.2.2.4.5.6.2zm-1.2 22.9c1.1-10.6 4.4-20.1 9.6-29.3.2-.3-.2-.5-.4-.2-5.9 8.8-9.1 19.1-9.8 29.6-.1.3.6.3.6-.1zm51.2-51c1.2-1.5 2.6-2.9 4.3-4 1.7-1.1 3.6-1.5 5.5-2.1.3-.1.3-.6-.1-.6-4.1-.1-8.2 2.9-10.1 6.4-.1.2.2.5.4.3zm6.6-1.8c17.1-3.6 30.8 12.9 36.2 27.1.1.4.7.2.6-.2-3.8-14.4-20.6-32.6-37-27.6-.4.2-.3.8.2.7zm31.9 28.5c1.6 1.7 3.3 3.4 4.7 5.3 1.3 1.7 2.4 3.6 3.8 5.3.2.2.5 0 .4-.2-1.4-4-5.2-8.1-8.5-10.8-.3-.2-.7.2-.4.4zm2.8 3.1c3.6 7.4 4 13.7 3.7 21.8 0 .3.4.3.5.1 2.4-7.1.3-16-3.7-22.1-.3-.4-.7-.2-.5.2zm-5.3 12.4c2.3 8.7 2.7 17.2 2.2 26.2 0 .3.6.4.6.1 1.4-8.8.3-17.9-2.4-26.4 0-.2-.4-.1-.4.1zM102 49.5c8.8-11.4 22.7-5.1 28.8 5.1.2.3.6 0 .4-.3-5.2-11-22.1-17.7-29.7-5.1-.1.4.3.6.5.3zm-.9-9.3c-.8-1.2-2-2.5-3.4-3-.2-.1-.3.2-.2.4.6.5 1.3.8 1.9 1.3.6.5 1 1 1.5 1.5.1.1.3-.1.2-.2zm37 25.1c2.7 6.8 3.6 13.8 4 21.1 0 .3.5.3.5 0 .4-7.4-1.3-14.4-4.1-21.2-.1-.2-.5-.1-.4.1z" fill="#1b141c" stroke-width="none" opacity="1"></path><path id="SvgjsPath13765" d="M98.1 54.6c-5.3-8.5-17.3-8.2-22.7-.1-.1.1.1.3.2.2 6.2-7.3 15.9-6.8 22 .3.2.3.7-.1.5-.4zM81.2 56c-2.6 4.5-3.8 9.4-3.3 14.6 0 .3.4.3.4 0 .1-5 1.1-9.9 3.2-14.5.1-.1-.2-.2-.3-.1zm17.3-7.7c-4.7-8.9-15.9-9.5-23.5-3.9C64.8 52 63.6 66.2 63.6 77.9c0 .3.4.3.5 0 .7-9.3.9-19.1 6.2-27.2 6.2-9.6 21.4-14.1 27.9-2.1.1.1.5-.1.3-.3zm-5.4-11c-7-2.5-15.3-1.5-20.8 3.7-.2.2.1.5.3.4 6.4-4 13-5.8 20.4-3.7.2.1.3-.3.1-.4zm-4.7-3.9c-1.8-.5-3.8-.5-5.6.3-.2.1-.1.4.1.3 1.8-.5 3.5-.7 5.3-.2.4.1.5-.3.2-.4zm13.9 20.1c4.9-3.9 10.2-5.2 16.3-4.6.4 0 .4-.5.1-.6-5.9-1.6-12.6.5-16.9 4.7-.3.3.2.8.5.5zm2.2-4.6c1.6-1.4 3.3-1.9 5.3-2.3.2-.1.2-.4-.1-.4-2.1 0-4.1 1.1-5.6 2.5-.2.1.2.4.4.2zm0-6.7c5.2-4.3 11.5-4.8 17.7-2.5.3.1.6-.4.2-.6-5.9-3.4-13.5-1.9-18.3 2.7-.2.3.2.6.4.4zm5.1-6c1.3-.9 2.9-1.2 4.5-1 .3 0 .3-.4.1-.5-1.7-.4-3.4.1-4.8 1.1-.3.2-.1.6.2.4zm27.9 24.3c4.4 9.2 5.4 17.8 6 27.8 0 .2.3.3.4.1 1.5-9.5-1.4-19.8-5.9-28.1-.2-.3-.6-.1-.5.2zm5.1-3c.4 1.4.7 3.1 1.4 4.4.1.3.5.1.5-.2-.2-1.5-.9-2.9-1.4-4.3-.2-.3-.6-.2-.5.1zM59.7 91c-.1-2.9-.1-5.8-.2-8.7 0-.2-.2-.2-.2 0 0 2.9.1 5.8.2 8.7-.1.2.2.2.2 0z" fill="#3a353a" stroke-width="none" opacity="1"></path></g><g id="svga-group-glasses-single-move" transform="matrix(1,0,0,1,0,0)"><g id="svga-group-glasses-single"><path id="SvgjsPath13692" d="M72.71 85.78c-2.72.89-6.12 4.57-5.51 11.83.61 7.26 4.71 10.02 8.54 11.43 3.83 1.41 9.68 1.28 14.05-2.69s5.38-8.54 5.04-11.43-2.89-7.39-7.06-8.94c-4.17-1.54-8.48-2.35-15.06-.2z" fill="url(#SvgjsLinearGradient13693)" opacity="1"></path><path id="SvgjsPath13698" d="M127.29 85.78c2.72.89 6.12 4.57 5.51 11.83-.61 7.26-4.71 10.02-8.54 11.43-3.83 1.41-9.68 1.28-14.05-2.69s-5.38-8.54-5.04-11.43 2.89-7.39 7.06-8.94c4.17-1.54 8.48-2.35 15.06-.2z" fill="url(#SvgjsLinearGradient13699)" opacity="1"></path><path id="SvgjsPath13704" d="M119.3 110.69c-4.54 0-9.01-2.42-11.97-6.46-3.39-4.64-4.14-9.63-4.23-10.3.31-.21 1.53-1.13 1.35-2.31-.18-1.2-3.09-1.29-3.97-1.29h-.96c-.88 0-3.79.09-3.97 1.29-.18 1.19 1.04 2.1 1.35 2.31-.09.67-.84 5.66-4.23 10.3-2.96 4.05-7.43 6.46-11.97 6.46-2.19 0-4.42-.54-6.62-1.6-7.34-3.54-7.69-9.66-7.92-13.71-.02-.36-.04-.71-.06-1.03-.26-3.68-2.52-4.06-3.11-4.09v-3.73c.18.01.36.01.54.01 2.63 0 5.06-.7 7.63-1.44 2.8-.81 5.69-1.64 9.1-1.64.53 0 1.06.02 1.62.06 4.85.38 7.27 1.96 8.88 3.01.52.34.97.63 1.39.82.65.29 1.53.42 2.77.42.93 0 1.93-.08 2.89-.15.64-.05 1.27-.1 1.85-.12h.68c.57.02 1.2.07 1.84.12.97.07 1.96.15 2.89.15 1.24 0 2.12-.13 2.77-.42.43-.19.87-.48 1.39-.82 1.6-1.05 4.03-2.63 8.88-3.01.55-.04 1.09-.06 1.62-.06 3.41 0 6.31.84 9.1 1.64 2.57.74 5 1.44 7.63 1.44.18 0 .36 0 .54-.01v3.73c-.62.04-2.84.45-3.11 4.09-.02.33-.04.67-.06 1.04-.23 4.05-.58 10.17-7.92 13.71-2.19 1.05-4.42 1.59-6.61 1.59zm.99-25.75c-1.69 0-3.45.25-5.23.75-3.85 1.07-7.2 3.91-8.54 7.22-1.21 2.98-.83 6.29 1.09 9.57 2.57 4.38 6.88 6.89 11.83 6.89 3.2 0 6.33-1.07 8.58-2.94 5.16-4.29 5.49-12.86 2.32-17.1-2.05-2.75-5.81-4.39-10.05-4.39zm-40.58 0c-4.24 0-8 1.64-10.05 4.38-3.17 4.24-2.84 12.81 2.32 17.1 2.25 1.87 5.37 2.94 8.58 2.94 4.95 0 9.26-2.51 11.83-6.89 1.92-3.27 2.3-6.58 1.09-9.57-1.34-3.31-4.69-6.14-8.54-7.22-1.79-.49-3.54-.74-5.23-.74z" fill="#26120b" stroke-width="none" opacity="1"></path><path id="SvgjsPath13705" d="M119.74 83.57c3.4 0 6.28.83 9.07 1.64 2.58.75 5.01 1.45 7.66 1.45.14 0 .28 0 .42-.01v3.48c-.75.08-2.85.64-3.11 4.2-.02.33-.04.67-.06 1.04-.23 4.02-.57 10.1-7.85 13.61-2.18 1.05-4.39 1.58-6.57 1.58-4.5 0-8.93-2.4-11.87-6.41-3.27-4.47-4.07-9.27-4.2-10.17.4-.29 1.52-1.2 1.34-2.39-.19-1.26-2.93-1.39-4.09-1.39H99.53c-1.17 0-3.9.14-4.09 1.39-.18 1.19.94 2.1 1.34 2.39-.13.89-.93 5.69-4.2 10.17-2.93 4.01-7.37 6.41-11.87 6.41-2.18 0-4.38-.53-6.57-1.58-7.28-3.51-7.62-9.59-7.85-13.61l-.06-1.04c-.25-3.54-2.33-4.11-3.11-4.2v-3.49c.14 0 .28.01.42.01 2.65 0 5.08-.7 7.66-1.45 2.79-.81 5.67-1.64 9.07-1.64.53 0 1.08.02 1.61.06 4.82.38 7.23 1.95 8.82 2.99.52.34.97.64 1.41.83.67.3 1.56.43 2.82.43.94 0 1.94-.08 2.9-.15.65-.05 1.27-.1 1.83-.12h.68c.58.02 1.19.07 1.84.12.97.07 1.97.15 2.9.15 1.25 0 2.15-.14 2.82-.43.44-.19.89-.49 1.41-.83 1.59-1.04 4-2.61 8.82-2.99.53-.03 1.07-.05 1.61-.05m-.3 25.92c3.23 0 6.39-1.08 8.66-2.97 5.21-4.33 5.55-12.99 2.34-17.27-2.08-2.78-5.87-4.43-10.15-4.43-1.7 0-3.47.25-5.26.75-3.89 1.08-7.27 3.94-8.62 7.29-1.22 3.02-.84 6.37 1.1 9.68 2.59 4.41 6.94 6.95 11.93 6.95m-38.88 0c5 0 9.35-2.53 11.94-6.95 1.94-3.31 2.32-6.66 1.1-9.68-1.35-3.35-4.74-6.21-8.62-7.29-1.79-.5-3.56-.75-5.26-.75-4.28 0-8.07 1.66-10.15 4.43-3.2 4.28-2.87 12.94 2.34 17.27 2.26 1.89 5.42 2.97 8.65 2.97m39.18-26.17c-.53 0-1.07.02-1.63.06-6.41.5-8.56 3.06-10.31 3.84-.71.31-1.66.41-2.71.41-1.55 0-3.29-.21-4.74-.27h-.69c-1.44.06-3.19.27-4.74.27-1.05 0-2.01-.1-2.71-.41-1.75-.78-3.9-3.34-10.31-3.84-.56-.04-1.1-.06-1.63-.06-6.56 0-11.26 3.09-16.73 3.09-.22 0-.44-.01-.67-.02v3.98h.02c.23 0 2.81.09 3.09 3.98.29 4.08 0 10.97 8.06 14.85 2.33 1.12 4.57 1.61 6.67 1.61 5.16 0 9.45-2.93 12.07-6.51 3.69-5.05 4.26-10.43 4.26-10.43s-1.55-.97-1.36-2.23c.17-1.12 3.17-1.18 3.85-1.18h.95c.67 0 3.67.06 3.85 1.18.19 1.26-1.36 2.23-1.36 2.23s.58 5.39 4.26 10.43c2.62 3.59 6.91 6.51 12.07 6.51 2.1 0 4.34-.49 6.67-1.61 8.06-3.88 7.77-10.77 8.06-14.85.28-3.89 2.86-3.98 3.09-3.98h.02v-3.98c-.22.01-.45.02-.67.02-5.48 0-10.17-3.09-16.73-3.09zm-.3 25.92c-4.33 0-8.88-1.98-11.72-6.83-4.95-8.45 1.46-14.95 7.38-16.6 1.84-.51 3.58-.74 5.19-.74 4.53 0 8.06 1.81 9.95 4.33 3.16 4.23 2.84 12.66-2.3 16.93-2.19 1.82-5.28 2.91-8.5 2.91zm-38.88 0c-3.21 0-6.31-1.09-8.5-2.91-5.14-4.27-5.46-12.7-2.3-16.93 1.88-2.52 5.42-4.33 9.95-4.33 1.62 0 3.36.23 5.19.74 5.92 1.65 12.33 8.15 7.38 16.6-2.84 4.85-7.39 6.83-11.72 6.83z" fill="#070201" stroke-width="none" opacity="1"></path></g></g></g></g></g><rect id="svga-credit-rect" width="200" height="15" x="0" y="185" fill="#ecf0f1" opacity="0.5" style="display: none;"></rect><text id="svga-credit-text" font-family="Avenir Next, Roboto, Helvetica, Arial, sans-serif" font-size="10px" text-anchor="start" font-weight="400" size="10px" anchor="start" weight="400" fill="#333333" x="33.40447998046875" y="182.60824704170227" style="display: none;"><tspan id="SvgjsTspan13437" dy="13" x="33.40447998046875">Created on AvatarMaker.com</tspan></text></g><defs id="SvgjsDefs13384"><linearGradient id="SvgjsLinearGradient13693" x1="81.0032" y1="84.4741" x2="81.0032" y2="109.8612" gradientUnits="userSpaceOnUse" class="svga-on-canvas-glasses-gradient-single-0-null"><stop id="SvgjsStop13694" stop-opacity="1" stop-color="#9ab4d3" offset="0" ></stop><stop id="SvgjsStop13695" stop-opacity="0.7593" stop-color="#93aed1" offset="0.2407" ></stop><stop id="SvgjsStop13696" stop-opacity="0.4009" stop-color="#7e9ecc" offset="0.5991" ></stop><stop id="SvgjsStop13697" stop-opacity="0" stop-color="#6086c4" offset="1" ></stop></linearGradient><linearGradient id="SvgjsLinearGradient13699" x1="-18.9968" y1="84.4741" x2="-18.9968" y2="109.8612" gradientTransform="matrix(-1 0 0 1 100 0)" gradientUnits="userSpaceOnUse" class="svga-on-canvas-glasses-gradient-single-1-null"><stop id="SvgjsStop13700" stop-opacity="1" stop-color="#9ab4d3" offset="0" ></stop><stop id="SvgjsStop13701" stop-opacity="0.7593" stop-color="#93aed1" offset="0.2407" ></stop><stop id="SvgjsStop13702" stop-opacity="0.4009" stop-color="#7e9ecc" offset="0.5991" ></stop><stop id="SvgjsStop13703" stop-opacity="0" stop-color="#6086c4" offset="1" ></stop></linearGradient></defs></svg>